<svg xmlns="http://www.w3.org/2000/svg" xmlns:xlink="http://www.w3.org/1999/xlink" width="347" height="84" viewBox="0 0 347 84">
  <defs>
    <filter id="Rectangle_421" x="0" y="0" width="347" height="84" filterUnits="userSpaceOnUse">
      <feOffset input="SourceAlpha"/>
      <feGaussianBlur stdDeviation="5" result="blur"/>
      <feFlood flood-opacity="0.102"/>
      <feComposite operator="in" in2="blur"/>
      <feComposite in="SourceGraphic"/>
    </filter>
    <filter id="Rectangle_422" x="6" y="3" width="88" height="78" filterUnits="userSpaceOnUse">
      <feOffset dx="3" input="SourceAlpha"/>
      <feGaussianBlur stdDeviation="4" result="blur-2"/>
      <feFlood flood-opacity="0.102"/>
      <feComposite operator="in" in2="blur-2"/>
      <feComposite in="SourceGraphic"/>
    </filter>
  </defs>
  <g id="Group_466" data-name="Group 466" transform="translate(-699 -243)">
    <rect id="Rectangle_423" data-name="Rectangle 423" width="317" height="54" rx="2" transform="translate(717 261)" fill="#bddef8"/>
    <g transform="matrix(1, 0, 0, 1, 699, 243)" filter="url(#Rectangle_421)">
      <rect id="Rectangle_421-2" data-name="Rectangle 421" width="317" height="54" rx="2" transform="translate(15 15)" fill="#50abf1"/>
    </g>
    <text id="Sign_Up_with_Twitter" data-name="Sign Up with Twitter" transform="translate(806 291)" fill="#fff" font-size="16" font-family="SegoeUI, Segoe UI"><tspan x="0" y="0">Sign Up with Twitter</tspan></text>
    <g transform="matrix(1, 0, 0, 1, 699, 243)" filter="url(#Rectangle_422)">
      <rect id="Rectangle_422-2" data-name="Rectangle 422" width="64" height="54" transform="translate(15 15)" fill="#75b8ec"/>
    </g>
    <path id="twitter_1_" data-name="twitter (1)" d="M22.486,50.163a9.611,9.611,0,0,1-2.656.728,4.584,4.584,0,0,0,2.028-2.548,9.213,9.213,0,0,1-2.923,1.116,4.61,4.61,0,0,0-7.974,3.152,4.747,4.747,0,0,0,.107,1.051,13.048,13.048,0,0,1-9.5-4.822A4.611,4.611,0,0,0,2.982,55,4.553,4.553,0,0,1,.9,54.434v.051a4.631,4.631,0,0,0,3.693,4.53,4.6,4.6,0,0,1-1.209.152,4.076,4.076,0,0,1-.873-.079A4.654,4.654,0,0,0,6.819,62.3,9.263,9.263,0,0,1,1.1,64.265,8.636,8.636,0,0,1,0,64.2,12.978,12.978,0,0,0,7.072,66.27,13.03,13.03,0,0,0,20.193,53.152c0-.2-.007-.4-.017-.6A9.2,9.2,0,0,0,22.486,50.163Z" transform="translate(735 228)" fill="#fff"/>
  </g>
</svg>
