<svg xmlns="http://www.w3.org/2000/svg" xmlns:xlink="http://www.w3.org/1999/xlink" width="347" height="84" viewBox="0 0 347 84">
  <defs>
    <filter id="Rectangle_421" x="0" y="0" width="347" height="84" filterUnits="userSpaceOnUse">
      <feOffset input="SourceAlpha"/>
      <feGaussianBlur stdDeviation="5" result="blur"/>
      <feFlood flood-opacity="0.102"/>
      <feComposite operator="in" in2="blur"/>
      <feComposite in="SourceGraphic"/>
    </filter>
    <filter id="Rectangle_422" x="6" y="3" width="88" height="78" filterUnits="userSpaceOnUse">
      <feOffset dx="3" input="SourceAlpha"/>
      <feGaussianBlur stdDeviation="4" result="blur-2"/>
      <feFlood flood-opacity="0.102"/>
      <feComposite operator="in" in2="blur-2"/>
      <feComposite in="SourceGraphic"/>
    </filter>
  </defs>
  <g id="Group_898" data-name="Group 898" transform="translate(-298 -225)">
    <rect id="Rectangle_423" data-name="Rectangle 423" width="317" height="54" rx="2" transform="translate(316 243)" fill="#adb8d5"/>
    <g id="Group_897" data-name="Group 897">
      <g transform="matrix(1, 0, 0, 1, 298, 225)" filter="url(#Rectangle_421)">
        <rect id="Rectangle_421-2" data-name="Rectangle 421" width="317" height="54" rx="2" transform="translate(15 15)" fill="#3a559f"/>
      </g>
    </g>
    <text id="Sign_Up_with_Facebook" data-name="Sign Up with Facebook" transform="translate(405 273)" fill="#fff" font-size="16" font-family="SegoeUI, Segoe UI"><tspan x="0" y="0">Sign Up with Facebook</tspan></text>
    <g transform="matrix(1, 0, 0, 1, 298, 225)" filter="url(#Rectangle_422)">
      <rect id="Rectangle_422-2" data-name="Rectangle 422" width="64" height="54" transform="translate(15 15)" fill="#4d63a1"/>
    </g>
    <g id="facebook-logo" transform="translate(316.923 256)">
      <path id="Path_51" data-name="Path 51" d="M33.612,0,30.737,0c-3.23,0-5.317,2.141-5.317,5.456V7.971H22.529a.452.452,0,0,0-.452.452v3.645a.452.452,0,0,0,.452.452H25.42v9.2a.452.452,0,0,0,.452.452h3.771a.452.452,0,0,0,.452-.452v-9.2h3.38a.452.452,0,0,0,.452-.452V8.424a.452.452,0,0,0-.452-.452H30.1V5.839c0-1.025.244-1.545,1.579-1.545h1.937a.452.452,0,0,0,.452-.452V.457A.452.452,0,0,0,33.612,0Z" transform="translate(0)" fill="#fff"/>
    </g>
  </g>
</svg>
